<?xml version="1.0" encoding="utf-8"?>
<!-- Generator: Adobe Illustrator 21.0.0, SVG Export Plug-In . SVG Version: 6.00 Build 0)  -->
<svg version="1.1" id="Layer_1" xmlns="http://www.w3.org/2000/svg" xmlns:xlink="http://www.w3.org/1999/xlink" x="0px" y="0px"
	 viewBox="0 0 550.5 138.6" style="enable-background:new 0 0 550.5 138.6;" xml:space="preserve">
<style type="text/css">
	.st0{fill:#47494C;}
	.st1{fill:#EE352A;}
	.st2{fill:#808285;}
</style>
<g>
	<polygon class="st0" points="221.1,122.1 223.7,122.1 225.9,132.4 231.8,122.1 234.3,122.1 226.3,135.6 224.3,135.6 	"/>
	<path class="st0" d="M232.8,132.6L232.8,132.6c0.4-2.2,2.3-3.3,4.8-3.3c1.1,0,1.9,0.2,2.7,0.4l0-0.2c0.3-1.4-0.5-2.2-2.1-2.2
		c-1.1,0-2,0.2-3,0.6l-0.3-1.8c1.2-0.5,2.4-0.8,4-0.8c1.5,0,2.6,0.4,3.2,1.1c0.6,0.7,0.8,1.8,0.5,3.1l-1.1,6h-2.3l0.2-1.3
		c-0.8,0.8-2,1.5-3.6,1.5C233.9,135.7,232.4,134.6,232.8,132.6 M239.9,131.9l0.1-0.7c-0.6-0.2-1.3-0.4-2.2-0.4
		c-1.5,0-2.5,0.6-2.7,1.7l0,0c-0.2,1,0.6,1.5,1.7,1.5C238.3,134.1,239.6,133.2,239.9,131.9 M240.8,121l1.9,0.9l-2.8,2.2h-1.7
		L240.8,121z"/>
	<path class="st0" d="M243.7,134.2l1.3-1.6c1,0.8,2.1,1.2,3.1,1.2c1,0,1.7-0.4,1.8-1.1l0,0c0.1-0.8-0.9-1.1-2-1.4
		c-1.4-0.4-3-1-2.6-3l0,0c0.3-1.9,2.1-3.1,4.2-3.1c1.3,0,2.6,0.4,3.5,1.2l-1.2,1.7c-0.9-0.6-1.8-1-2.7-1c-0.9,0-1.5,0.4-1.6,1l0,0
		c-0.1,0.8,0.9,1.1,2,1.4c1.4,0.5,2.9,1.1,2.6,3l0,0c-0.4,2.1-2.2,3.2-4.3,3.2C246.3,135.7,244.8,135.2,243.7,134.2 M250.8,124.1
		h-2.2l-1.7-2.8h1.8l1.2,1.3l1.7-1.3h1.8L250.8,124.1z"/>
	<path class="st0" d="M261.4,125.4h2.3l-0.3,1.7c0.9-1.1,2.1-1.9,3.8-1.9c2.4,0,4.4,1.9,3.8,5.3l0,0c-0.6,3.4-3.2,5.3-5.6,5.3
		c-1.7,0-2.6-0.8-3.1-1.8l-0.8,4.6h-2.3L261.4,125.4z M268.7,130.5L268.7,130.5c0.4-2-0.7-3.3-2.3-3.3c-1.6,0-3.2,1.3-3.5,3.2l0,0
		c-0.3,1.9,0.8,3.2,2.4,3.2C266.8,133.7,268.3,132.5,268.7,130.5"/>
	<path class="st0" d="M274.3,125.4h2.3l-0.4,2.3c0.9-1.5,2.3-2.6,4-2.5l-0.4,2.5h-0.1c-2,0-3.7,1.3-4.2,4l-0.7,3.9h-2.3L274.3,125.4
		z"/>
	<path class="st0" d="M280.4,130.5L280.4,130.5c0.5-2.9,3.3-5.3,6.4-5.3c3.1,0,5,2.4,4.5,5.3l0,0c-0.5,2.9-3.2,5.3-6.4,5.3
		C281.8,135.8,279.9,133.4,280.4,130.5 M288.9,130.5L288.9,130.5c0.3-1.8-0.7-3.3-2.5-3.3c-1.9,0-3.3,1.5-3.6,3.2l0,0
		c-0.3,1.8,0.7,3.2,2.5,3.2C287.1,133.7,288.6,132.3,288.9,130.5"/>
	<path class="st0" d="M294.4,127.4h-1.3l0.3-1.9h1.3l0.1-0.8c0.2-1.1,0.6-2,1.3-2.5c0.6-0.5,1.4-0.8,2.4-0.8c0.8,0,1.3,0.1,1.8,0.3
		l-0.3,2c-0.4-0.2-0.8-0.2-1.3-0.2c-0.9,0-1.4,0.5-1.6,1.5l-0.1,0.6h2.7l-0.3,1.9h-2.6l-1.4,8.1h-2.3L294.4,127.4z"/>
	<path class="st0" d="M299.8,130.5L299.8,130.5c0.5-2.9,3-5.3,5.9-5.3c3.2,0,4.4,2.5,3.9,5.5c0,0.2-0.1,0.4-0.2,0.7h-7.4
		c0,1.7,1,2.6,2.5,2.6c1.1,0,2-0.4,3-1.2l1.1,1.2c-1.2,1.2-2.6,1.9-4.5,1.9C301.1,135.8,299.2,133.6,299.8,130.5 M307.4,129.8
		c0.1-1.5-0.6-2.7-2.1-2.7c-1.4,0-2.6,1.1-3.1,2.7H307.4z"/>
	<path class="st0" d="M310.3,134.2l1.3-1.6c1,0.8,2.1,1.2,3.1,1.2c1,0,1.6-0.4,1.8-1.1l0,0c0.1-0.8-0.9-1.1-2-1.4
		c-1.4-0.4-3-1-2.6-3l0,0c0.3-1.9,2.1-3.1,4.2-3.1c1.3,0,2.6,0.4,3.5,1.1l-1.2,1.7c-0.9-0.6-1.8-1-2.7-1c-0.9,0-1.5,0.4-1.6,1l0,0
		c-0.1,0.8,0.9,1.1,2,1.4c1.4,0.5,2.9,1.1,2.6,3l0,0c-0.4,2.1-2.2,3.2-4.3,3.2C312.9,135.7,311.4,135.2,310.3,134.2"/>
	<path class="st0" d="M322.3,125.4h2.3l-1.8,10.1h-2.3L322.3,125.4z M322.8,121.6h2.5l-0.4,2.2h-2.5L322.8,121.6z"/>
	<path class="st0" d="M326,130.5L326,130.5c0.5-2.9,3.3-5.3,6.4-5.3c3.1,0,5,2.4,4.5,5.3l0,0c-0.5,2.9-3.2,5.3-6.4,5.3
		C327.3,135.8,325.5,133.4,326,130.5 M334.5,130.5L334.5,130.5c0.3-1.8-0.7-3.3-2.5-3.3c-1.9,0-3.3,1.5-3.6,3.2l0,0
		c-0.3,1.8,0.7,3.2,2.5,3.2C332.7,133.7,334.1,132.3,334.5,130.5"/>
	<path class="st0" d="M340,125.4h2.3l-0.3,1.6c0.8-0.9,1.9-1.8,3.5-1.8c2.3,0,3.3,1.5,2.9,3.9l-1.1,6.5h-2.3l1-5.8
		c0.3-1.6-0.3-2.5-1.7-2.5c-1.3,0-2.5,0.9-2.7,2.5l-1,5.7h-2.3L340,125.4z"/>
	<path class="st0" d="M349.8,132.6L349.8,132.6c0.4-2.2,2.3-3.3,4.8-3.3c1.1,0,1.9,0.2,2.7,0.4l0-0.2c0.3-1.4-0.5-2.2-2.1-2.2
		c-1.1,0-2,0.2-3,0.6l-0.3-1.8c1.2-0.5,2.4-0.8,4-0.8c1.5,0,2.6,0.4,3.2,1.1c0.6,0.7,0.8,1.8,0.5,3.1l-1.1,6h-2.3l0.2-1.3
		c-0.8,0.8-2,1.5-3.6,1.5C351,135.7,349.5,134.6,349.8,132.6 M356.9,131.9l0.1-0.7c-0.6-0.2-1.3-0.4-2.2-0.4c-1.5,0-2.5,0.6-2.7,1.7
		l0,0c-0.2,1,0.6,1.5,1.7,1.5C355.4,134.1,356.7,133.2,356.9,131.9 M357.8,121l1.9,0.9l-2.8,2.2h-1.7L357.8,121z"/>
	<polygon class="st0" points="363.8,121.5 366.1,121.5 363.6,135.5 361.3,135.5 	"/>
	<path class="st0" d="M368.3,125.4h2.3l-0.3,1.6c0.8-0.9,1.9-1.8,3.5-1.8c2.3,0,3.3,1.5,2.9,3.9l-1.1,6.5h-2.3l1-5.8
		c0.3-1.6-0.3-2.5-1.7-2.5c-1.3,0-2.5,0.9-2.7,2.5l-1,5.7h-2.3L368.3,125.4z"/>
	<path class="st0" d="M380.2,125.4h2.3l-1.8,10.1h-2.3L380.2,125.4z M383.2,121l1.9,0.9l-2.8,2.2h-1.7L383.2,121z"/>
	<path class="st0" d="M389.9,130.5L389.9,130.5c0.6-3.4,3.2-5.3,5.6-5.3c1.7,0,2.6,0.8,3.1,1.8l1-5.5h2.3l-2.5,14h-2.3l0.3-1.7
		c-0.9,1.1-2.1,1.9-3.8,1.9C391.3,135.7,389.3,133.8,389.9,130.5 M398.1,130.5L398.1,130.5c0.4-2-0.8-3.3-2.4-3.3
		c-1.6,0-3.1,1.2-3.5,3.2l0,0c-0.3,2,0.8,3.2,2.3,3.2C396.2,133.7,397.8,132.4,398.1,130.5"/>
	<path class="st0" d="M402.6,130.5L402.6,130.5c0.5-2.9,3.3-5.3,6.4-5.3c3.1,0,5,2.4,4.5,5.3l0,0c-0.5,2.9-3.2,5.3-6.4,5.3
		C404,135.8,402.1,133.4,402.6,130.5 M411.1,130.5L411.1,130.5c0.3-1.8-0.7-3.3-2.5-3.3c-1.9,0-3.3,1.5-3.6,3.2l0,0
		c-0.3,1.8,0.7,3.2,2.5,3.2C409.4,133.7,410.8,132.3,411.1,130.5"/>
	<path class="st0" d="M415.2,130.5L415.2,130.5c0.6-3.4,3.2-5.3,5.6-5.3c1.7,0,2.6,0.8,3.1,1.8l1-5.5h2.3l-2.5,14h-2.3l0.3-1.7
		c-0.9,1.1-2.1,1.9-3.8,1.9C416.6,135.7,414.6,133.8,415.2,130.5 M423.4,130.5L423.4,130.5c0.4-2-0.8-3.3-2.4-3.3
		c-1.6,0-3.1,1.2-3.5,3.2l0,0c-0.3,2,0.8,3.2,2.3,3.2C421.4,133.7,423.1,132.4,423.4,130.5"/>
	<path class="st0" d="M427.5,132.6L427.5,132.6c0.4-2.2,2.3-3.3,4.8-3.3c1.1,0,1.9,0.2,2.7,0.4l0-0.2c0.3-1.4-0.5-2.2-2.1-2.2
		c-1.1,0-2,0.2-3,0.6l-0.3-1.8c1.2-0.5,2.4-0.8,4-0.8c1.5,0,2.6,0.4,3.2,1.1c0.6,0.7,0.8,1.8,0.5,3.1l-1.1,6h-2.3l0.2-1.3
		c-0.8,0.8-2,1.5-3.6,1.5C428.6,135.7,427.1,134.6,427.5,132.6 M434.5,131.9l0.1-0.7c-0.6-0.2-1.3-0.4-2.2-0.4
		c-1.5,0-2.5,0.6-2.7,1.7l0,0c-0.2,1,0.6,1.5,1.7,1.5C433,134.1,434.3,133.2,434.5,131.9"/>
	<polygon class="st0" points="439.1,125.4 441.6,125.4 443,132.8 447.1,125.4 449.5,125.4 443.6,135.6 441.5,135.6 	"/>
	<path class="st0" d="M449.2,132.6L449.2,132.6c0.4-2.2,2.3-3.3,4.8-3.3c1.1,0,1.9,0.2,2.7,0.4l0-0.2c0.3-1.4-0.5-2.2-2.1-2.2
		c-1.1,0-2,0.2-3,0.6l-0.3-1.8c1.2-0.5,2.4-0.8,4-0.8c1.5,0,2.6,0.4,3.2,1.1c0.6,0.7,0.8,1.8,0.5,3.1l-1.1,6h-2.3l0.2-1.3
		c-0.8,0.8-2,1.5-3.6,1.5C450.3,135.7,448.8,134.6,449.2,132.6 M456.2,131.9l0.1-0.7c-0.6-0.2-1.3-0.4-2.2-0.4
		c-1.5,0-2.5,0.6-2.7,1.7l0,0c-0.2,1,0.6,1.5,1.7,1.5C454.7,134.1,456,133.2,456.2,131.9"/>
	<path class="st0" d="M461.3,132.7l0.9-5.3h-1.3l0.4-2h1.3l0.5-2.8h2.3l-0.5,2.8h2.7l-0.4,2h-2.7l-0.9,5c-0.2,0.9,0.2,1.3,1,1.3
		c0.5,0,1-0.1,1.5-0.3l-0.3,1.9c-0.6,0.3-1.3,0.5-2.2,0.5C462,135.7,460.9,135,461.3,132.7"/>
	<path class="st0" d="M468.1,130.5L468.1,130.5c0.5-2.9,3-5.3,5.9-5.3c3.2,0,4.4,2.5,3.9,5.5c0,0.2-0.1,0.4-0.2,0.7h-7.4
		c0,1.7,1,2.6,2.5,2.6c1.1,0,2-0.4,3-1.2l1.1,1.2c-1.2,1.2-2.6,1.9-4.5,1.9C469.4,135.8,467.5,133.6,468.1,130.5 M475.7,129.8
		c0.1-1.5-0.6-2.7-2.1-2.7c-1.4,0-2.6,1.1-3.1,2.7H475.7z"/>
	<polygon class="st0" points="481.8,121.5 484.2,121.5 481.7,135.5 479.4,135.5 	"/>
	<path class="st0" d="M489.9,134.2l1.3-1.6c1,0.8,2.1,1.2,3.1,1.2c1,0,1.6-0.4,1.8-1.1l0,0c0.1-0.8-0.9-1.1-2-1.4
		c-1.4-0.4-3-1-2.6-3l0,0c0.3-1.9,2.1-3.1,4.2-3.1c1.3,0,2.6,0.4,3.5,1.1l-1.2,1.7c-0.9-0.6-1.8-1-2.7-1c-0.9,0-1.5,0.4-1.6,1l0,0
		c-0.1,0.8,0.9,1.1,2,1.4c1.4,0.5,2.9,1.1,2.6,3l0,0c-0.4,2.1-2.2,3.2-4.3,3.2C492.5,135.7,491,135.2,489.9,134.2"/>
	<polygon class="st0" points="502.6,121.5 504.9,121.5 502.4,135.5 500.1,135.5 	"/>
	<path class="st0" d="M505.9,131.8l1.1-6.5h2.3l-1,5.8c-0.3,1.6,0.4,2.5,1.7,2.5c1.3,0,2.4-0.9,2.7-2.5l1-5.7h2.3l-1.8,10.1H512
		l0.3-1.6c-0.8,1-1.9,1.8-3.5,1.8C506.5,135.7,505.5,134.2,505.9,131.8"/>
	<path class="st0" d="M517,133.9l7-6.6h-5.6l0.3-1.9h8.6L527,127l-7,6.6h5.9l-0.3,1.9h-8.8L517,133.9z M524.2,124.1h-2.2l-1.7-2.8
		h1.8l1.2,1.3l1.7-1.3h1.8L524.2,124.1z"/>
	<path class="st0" d="M527.8,130.5L527.8,130.5c0.5-2.9,3-5.3,5.9-5.3c3.2,0,4.4,2.5,3.9,5.5c0,0.2-0.1,0.4-0.2,0.7H530
		c0,1.7,1,2.6,2.5,2.6c1.1,0,2-0.4,3-1.2l1.1,1.2c-1.2,1.2-2.6,1.9-4.5,1.9C529.1,135.8,527.2,133.6,527.8,130.5 M535.4,129.8
		c0.1-1.5-0.6-2.7-2.1-2.7c-1.4,0-2.6,1.1-3.1,2.7H535.4z"/>
	<path class="st0" d="M541.6,134l-0.3,1.6H539l2.5-14h2.3l-1,5.6c0.9-1.1,2.1-1.9,3.8-1.9c2.4,0,4.4,1.9,3.8,5.3l0,0
		c-0.6,3.4-3.2,5.3-5.6,5.3C543,135.7,542.1,134.9,541.6,134 M548,130.5L548,130.5c0.4-2-0.7-3.3-2.3-3.3c-1.6,0-3.2,1.3-3.5,3.2
		l0,0c-0.3,1.9,0.8,3.2,2.4,3.2C546.1,133.7,547.6,132.5,548,130.5"/>
	<polygon class="st1" points="41.4,50.2 0,50.2 0,58.6 47.2,58.6 61.3,22.8 75.4,58.6 204.4,58.6 204.4,50.2 81.2,50.2 61.3,0 	"/>
	<polygon class="st1" points="0.8,67.1 10,67.1 20.1,83.4 30.3,67.1 39.4,67.1 39.4,105.7 31,105.7 31,80.5 20.1,97 19.9,97 
		9.1,80.6 9.1,105.7 0.8,105.7 	"/>
	<path class="st1" d="M45.2,91.1V91c0-8.5,6.8-15.4,16.1-15.4c9.2,0,16,6.8,16,15.3V91c0,8.5-6.8,15.4-16.1,15.4
		C51.9,106.4,45.2,99.6,45.2,91.1 M68.9,91.1V91c0-4.4-3.1-8.2-7.8-8.2c-4.8,0-7.7,3.7-7.7,8.1V91c0,4.4,3.1,8.2,7.8,8.2
		C66,99.1,68.9,95.4,68.9,91.1"/>
	<path class="st1" d="M81.9,65.4h8.4v14.9c1.9-2.5,4.4-4.7,8.7-4.7c6.3,0,10,4.2,10,11v19.2h-8.4V89.2c0-4-1.9-6-5.1-6s-5.2,2-5.2,6
		v16.5h-8.4V65.4z"/>
	<path class="st1" d="M113.5,91.1V91c0-8.4,6-15.4,14.6-15.4c9.9,0,14.4,7.7,14.4,16.1c0,0.7-0.1,1.4-0.1,2.2h-20.6
		c0.8,3.8,3.5,5.8,7.2,5.8c2.8,0,4.9-0.9,7.2-3l4.8,4.3c-2.8,3.4-6.7,5.5-12.1,5.5C120.1,106.4,113.5,100.1,113.5,91.1 M134.4,88.6
		c-0.5-3.8-2.7-6.3-6.2-6.3c-3.5,0-5.7,2.5-6.4,6.3H134.4z"/>
	<rect x="147.6" y="65.4" class="st1" width="8.4" height="40.3"/>
	<path class="st1" d="M162.5,76.1h8.4v4.2c1.9-2.5,4.4-4.7,8.7-4.7c6.3,0,10,4.2,10,11v19.2h-8.4V89.2c0-4-1.9-6-5.1-6
		c-3.2,0-5.2,2-5.2,6v16.5h-8.4V76.1z"/>
	<path class="st1" d="M195.6,65.4h8.8v7.5h-8.8V65.4z M195.8,76.1h8.4v29.6h-8.4V76.1z"/>
	<path class="st1" d="M209,91.1V91c0-8.4,6.5-15.4,15.5-15.4c5.6,0,9.1,1.9,11.8,5l-5.1,5.5c-1.9-2-3.8-3.3-6.7-3.3
		c-4.2,0-7.2,3.7-7.2,8.1V91c0,4.5,2.9,8.2,7.5,8.2c2.8,0,4.7-1.2,6.8-3.1l4.9,5c-2.9,3.1-6.2,5.4-12.1,5.4
		C215.5,106.4,209,99.5,209,91.1"/>
	<polygon class="st1" points="240.2,65.4 248.6,65.4 248.6,86.9 258.4,76.1 268.5,76.1 257.2,87.7 268.9,105.7 259.1,105.7 
		251.6,93.5 248.6,96.7 248.6,105.7 240.2,105.7 	"/>
	<path class="st1" d="M268.8,91.1V91c0-8.4,6-15.4,14.6-15.4c9.9,0,14.4,7.7,14.4,16.1c0,0.7-0.1,1.4-0.1,2.2h-20.6
		c0.8,3.8,3.5,5.8,7.2,5.8c2.8,0,4.9-0.9,7.2-3l4.8,4.3c-2.8,3.4-6.7,5.5-12.1,5.5C275.3,106.4,268.8,100.1,268.8,91.1 M289.6,88.6
		c-0.5-3.8-2.7-6.3-6.2-6.3c-3.5,0-5.7,2.5-6.4,6.3H289.6z"/>
	<path class="st0" d="M302.9,99.9l5-6.2c3.5,3,7.1,4.8,11.5,4.8c3.5,0,5.6-1.4,5.6-3.7v-0.1c0-2.2-1.3-3.3-7.8-5.1
		c-7.8-2-12.8-4.3-12.8-12.1v-0.1c0-7.2,5.6-12,13.5-12c5.6,0,10.4,1.8,14.4,5l-4.4,6.6c-3.4-2.4-6.8-3.9-10-3.9c-3.3,0-5,1.5-5,3.5
		v0.1c0,2.6,1.7,3.5,8.3,5.2c7.8,2.1,12.3,5,12.3,11.9v0.1c0,7.9-5.9,12.3-14.2,12.3C313.4,106.2,307.5,104.1,302.9,99.9"/>
	<rect x="339.1" y="65.4" class="st0" width="8.4" height="40.3"/>
	<path class="st0" d="M353.8,95.3V76.1h8.4v16.5c0,4,1.9,6,5.1,6c3.2,0,5.2-2,5.2-6V76.1h8.4v29.6h-8.4v-4.2
		c-1.9,2.5-4.4,4.7-8.7,4.7C357.5,106.2,353.8,102,353.8,95.3"/>
	<polygon class="st0" points="385.8,99.8 401.1,82.9 386.3,82.9 386.3,76.1 411.5,76.1 411.5,82 396.2,98.9 411.5,98.9 411.5,105.7 
		385.8,105.7 	"/>
	<path class="st0" d="M425.1,101.8v3.9h-8.4V65.4h8.4v15c2-2.8,4.9-4.8,9.2-4.8c6.9,0,13.5,5.4,13.5,15.3V91
		c0,9.9-6.5,15.3-13.5,15.3C429.9,106.2,427.1,104.2,425.1,101.8 M439.4,91v-0.1c0-4.9-3.3-8.2-7.2-8.2c-3.9,0-7.2,3.3-7.2,8.2V91
		c0,4.9,3.3,8.2,7.2,8.2C436.1,99.1,439.4,95.9,439.4,91"/>
	<path class="st0" d="M470.4,76.1h8.7l-11.4,30.3c-2.3,6-4.7,8.3-9.7,8.3c-3,0-5.3-0.8-7.5-2l2.8-6.1c1.1,0.7,2.5,1.2,3.6,1.2
		c1.4,0,2.2-0.4,2.9-1.9l-11.6-29.7h8.9l6.7,20.1L470.4,76.1z"/>
	<rect x="479.5" y="96.9" class="st2" width="8.9" height="8.8"/>
	<path class="st2" d="M492.4,91.1V91c0-8.4,6.5-15.4,15.5-15.4c5.6,0,9.1,1.9,11.8,5l-5.1,5.5c-1.9-2-3.8-3.3-6.7-3.3
		c-4.2,0-7.2,3.7-7.2,8.1V91c0,4.5,2.9,8.2,7.5,8.2c2.8,0,4.7-1.2,6.8-3.1l4.9,5c-2.9,3.1-6.2,5.4-12.1,5.4
		C498.9,106.4,492.4,99.5,492.4,91.1"/>
	<polygon class="st2" points="522.9,99.8 538.2,82.9 523.4,82.9 523.4,76.1 548.6,76.1 548.6,82 533.3,98.9 548.6,98.9 548.6,105.7 
		522.9,105.7 	"/>
</g>
</svg>
