<?xml version="1.0" encoding="utf-8"?>
<!-- Generator: Adobe Illustrator 21.0.0, SVG Export Plug-In . SVG Version: 6.00 Build 0)  -->
<svg version="1.2" baseProfile="tiny" id="Layer_1" xmlns="http://www.w3.org/2000/svg" xmlns:xlink="http://www.w3.org/1999/xlink"
	 x="0px" y="0px" viewBox="0 0 214.1 78.5" xml:space="preserve">
<g>
	<path fill="#D1D3D4" d="M214.1,41.2c0-2.8-1.2-4.4-3.9-5.1c-1.6-0.4-3.1-0.8-4.7-1.2c-0.9-0.2-1.1-0.6-1.1-1.5
		c0.1-3.4-0.1-6.9,0.2-10.3c0.2-2.5-0.5-4.4-2.1-6.2c-0.6-0.7-1.2-1-2.1-1c-6.3-0.1-12.6-0.2-18.9-0.5c-2.3-0.1-4.5-0.2-6.2,1.8
		c-0.3,0.3-0.7,0.5-1,0.7c-0.8,0.5-2,0.8-2.4,1.6c-0.5,0.8-1,0.6-1.5,0.5c-1.3-0.2-2.4,0-2.9,1.3c-0.2,0.5-0.5,0.4-0.9,0.4
		c-2.3,0-4.7,0-7,0c-0.5,0-0.7-0.2-0.9-0.7c-1.1-2.4-1.4-5-2.3-7.4c-0.8,1.9-1.1,3.9-1.6,5.8c-0.9,3.5-1.5,7.1-1.5,10.7
		c0,0.2,0,0.4,0,0.6c0.2,0.9-0.3,1.2-1.1,1.3c-1.6,0.1-3.1,0.3-4.7,0.4c-5.2,0.5-10.6,0.7-15.4,3.2c-1.5,0.8-2.5,0.3-3.6-0.6
		c-0.6-0.6-1-1.3-1.4-2c-0.5-0.8-1-1.7-1.8-1.8c-2.4-0.4-2.4-2.1-2.4-3.9c0-1-0.3-2-0.2-3c0.1-1.4-0.5-2.2-1.3-3.1
		c-0.6-0.7-1.5-1.2-1.6-2.2c-0.1-1.8-1.4-2.9-2.1-4.5c-0.4,0.9-0.6,1.5-0.9,2.2c-0.3-0.8-0.6-1.3-0.8-1.8c-0.2,1-0.9,1.1-1.6,1.1
		c-0.8,0-1.6-0.1-2.3,0c-1.1,0.1-1.3-0.3-1.4-1.4c-0.1-2.3,0.8-4.8-1.1-6.8c-0.1-0.1,0-0.2,0-0.3c0.3-2.8-1.8-4.7-2.7-7.3
		c-2.7,4.2-3.3,8.8-3.3,13.7c-0.5-0.6-0.8-1-1.1-1.4c-0.5,0.9-1.1,1.7-1.4,2.5c-0.5,1.1-1.2,1.4-2.3,1.3c-2.1-0.1-4.3-0.1-6.4,0
		c-1.1,0-1.5-0.3-1.4-1.4c0.1-1.9-0.8-3.5-1.3-5.6c-1.3,2.7-1.7,5.1-1.7,7.6c0.1,4.3,0,8.6,0,12.8c0,0.6,0.1,1.3-0.8,1.3
		c-3.9,0.4-7.2,2.2-10.6,4c-1.7,0.9-3.4,1.9-5.2,2.4c-0.5,0.2-1,0.2-1.5-0.1c-5.2-3.9-11.3-5.3-17.6-5.9c-1-0.1-1.3-0.5-1.6-1.3
		c-1.1-3.4-1.2-6.9-1.5-10.3c0-0.4,0.2-0.7-0.3-0.9c-1.5-0.5-2.9-1.3-4.4-1.5c-2.5-0.2-5,0.2-7.6-0.4c-2.1-0.5-4.2,0-6.3,1.8
		c0-0.9,0.1-1.4,0-1.9c-0.4-2,0.8-3.8,0.3-5.8c-0.1-0.3,0-0.8-0.4-0.9c-0.6-0.2-0.5,0.4-0.6,0.7c-0.3,0.5-0.8,0.5-0.8-0.1
		c-0.1-0.6-0.5-0.7-0.8-1c-0.3-0.3,0.1-1.1-0.7-1.1c-0.8,0-0.5,0.7-0.7,1.1c-0.3,0.6-0.6,1.3-1.2,1.6c-0.5,0.3-0.6-0.5-1-0.8
		c-0.3-0.3-0.7-0.3-0.7,0.1c-0.1,0.9-0.4,2.1,0,2.6c1,1.1,0.6,2.2,0.7,3.3c0.1,1.2-0.4,1.5-1.5,1.4c-3.1-0.1-6.1-0.3-8.8,1.8
		c-0.7,0.5-1.1,0.9-1.1,1.8c0,3.2-0.1,6.5-0.1,9.7c0,0.9-0.2,1.3-1.1,1.6c-2.7,1-5.2,2.4-7.6,3.9c-3,1.9-4.1,4.8-4.2,8.1
		c-0.1,7.3,0,14.5-0.1,21.8c0,3.3,1.3,4.9,4.8,4.9c61.7-0.1,123.3-0.1,185-0.1c2.2,0,2.2,0,2.2,2.2c0,1.2-0.3,2.5,0.8,3.4
		c1.8,1.4,3.7,1.6,5.9,0.7c1.8-0.8,2.2-2.2,2-3.9c0-0.3,0-0.6,0-0.9c-0.2-1.1,0.2-1.5,1.4-1.5c2.7,0.1,5.4,0,8.1,0
		c2.5,0,3.7-1.3,3.7-3.8C214.1,58.9,214.2,50.1,214.1,41.2z M26,66.5c0,1.2-1,1.9-2.4,1.8c-1.2-0.1-2.3-0.5-2.2-2c0-4,0-8,0-12
		c0-0.5,0-1,0-1.5c-0.1,0-0.2,0-0.3-0.1c-1.1,2-2.2,4-3.4,5.9c-1.2,2-2.6,2-3.7-0.1c-1.1-2.1-2.2-4.1-3.4-6.3
		c-0.4,0.5-0.3,1-0.3,1.4c0,4.1,0,8.2,0,12.4c0,1.7-0.7,2.4-2.4,2.4c-1.5,0-2.3-0.8-2.3-2.3c0-6.9,0-13.8,0-20.7
		c0-1.1,0.1-2.2,1.3-2.5c1.2-0.4,2.5-0.4,3.5,0.7c1.5,1.7,2.2,3.8,3.4,5.6c0.7,1.1,1.3,2.3,2,3.6c1.5-2.8,3-5.3,4.4-7.9
		c0.8-1.5,1.9-2.4,3.7-2.2c1.3,0.2,2.1,0.8,2.1,2.1C26,52,26,59.3,26,66.5z M46,63.1c-0.6,2.5-2.1,4.1-4.6,4.9
		c-1.9,0.6-3.9,0.6-5.9,0.3c-3.4-0.7-5.4-2.8-5.7-6.7c-0.3-4.3-0.4-8.6,0.1-12.9c0.4-3.1,2.2-4.9,5.2-5.7c1.7-0.4,3.4-0.4,5.1-0.1
		c3.6,0.7,5.8,3.3,5.9,7c0.1,1.9,0,3.9,0,6.3C46.2,58.1,46.6,60.6,46,63.1z M65.6,68.1c-1.4,0.8-2.4,0.5-3.2-1
		c-1.4-2.8-2.9-5.5-4.3-8.4c-0.7-1.4-1.9-1-2.8-0.9c-1,0.1-0.5,1.1-0.5,1.7c-0.1,2.2,0,4.5,0,6.7c0,1.4-0.9,2.1-2.3,2.1
		c-1.5,0-2.3-0.7-2.4-2.1c0-3.6,0-7.2,0-10.8c0-3.5,0-7.1,0-10.6c0-1.7,0.4-2.2,2.1-2.1c3.1,0.1,6.3-0.4,9.4,0.3
		c3.2,0.7,4.7,2.4,5.3,5.8c0.5,3.1-0.7,6.2-3.2,7.6c-1.2,0.6-1.2,1.1-0.6,2.1c1.2,2.1,2.3,4.2,3.4,6.3
		C67.4,66.3,67.1,67.3,65.6,68.1z M85.8,68.2c-1.5,0.4-2.1,0.1-2.6-1.5C82,62.8,82,62.8,78,62.8c-3.9,0-3.9,0-4.9,3.7
		c-0.3,0.9-0.5,1.8-1.6,1.9c-1.1,0.1-2-0.2-2.8-1.1c-0.5-0.6-0.3-1.1-0.1-1.7c2.1-7,4.3-13.9,6.4-20.9c0.5-1.5,1.5-2.1,3.1-2.2
		c1.9,0,2.8,0.5,3.3,2.4c2.1,6.8,4.2,13.6,6.3,20.5C88.1,66.9,87.6,67.7,85.8,68.2z M96.7,68.5c-1.5,0-2.6-0.5-3.1-2.1
		c-2-6.8-4.1-13.6-6.2-20.3c-0.6-1.9-0.2-2.8,1.4-3.3c1.8-0.5,2.4-0.1,3,2c1.5,5.4,3.1,10.8,4.6,16.2c0.1,0.3,0.1,0.6,0.5,0.9
		c1.6-5.8,3.2-11.6,4.8-17.3c0.6-2,1.3-2.4,3-1.9c1.6,0.5,2,1.2,1.4,3.1c-2.1,6.8-4.2,13.6-6.2,20.5C99.5,68.1,98.3,68.5,96.7,68.5z
		 M123.2,68.2c-1.4,0.4-2.2,0-2.6-1.4c-0.1-0.5-0.3-1-0.4-1.5c-0.7-2.6-0.7-2.6-3.4-2.6c-0.6,0-1.1,0-1.7,0c-3.6,0-3.6,0-4.6,3.6
		c-0.6,2.1-2.1,2.6-3.9,1.3c-0.7-0.5-1-1-0.7-2c2.2-7.1,4.4-14.2,6.6-21.3c0.5-1.6,1.7-1.8,2.8-1.9c2.1,0,2.9,0.6,3.4,2.3
		c2.1,6.9,4.2,13.8,6.4,20.8C125.4,66.9,124.8,67.7,123.2,68.2z M140.2,68.4c-1.3,0.1-2.6,0.2-3.9-0.1c-3.7-0.6-5.9-3.3-6-7.1
		c0-1.9,0-3.8,0-5.6c0-1.9,0-3.8,0-5.6c0.1-3.7,2.2-6.4,5.8-7.1c2.3-0.5,4.7-0.3,6.9,0.7c2.4,1.2,3.7,3.1,3.7,5.9
		c0,1.1-0.3,1.9-1.6,2.1c-2,0.2-2.6-0.1-2.9-1.6c-0.5-2.2-1.3-3-3.1-3.1c-2.8-0.2-4.1,0.9-4.1,3.8c0,3.4,0,6.8,0,10.2
		c0,2.2,1,3.5,2.8,3.6c2.6,0.3,3.7-0.5,4.2-3c0.4-1.9,1.8-2.6,3.6-1.9c0.8,0.3,1,0.9,1.1,1.7C146.8,65,144.2,68,140.2,68.4z
		 M162.9,61.5c0,1.6-0.1,3.1,0,4.7c0.1,1.4-0.7,1.9-1.8,2.1c-1.2,0.1-2.2-0.2-2.4-1.6c0-0.1-0.1-0.2-0.2-0.5c-1.3,1-2.5,2.1-4.2,2.3
		c-2.6,0.4-4.6-0.8-5.3-3.2c-0.7-2.6,0.4-4.9,2.8-5.9c1.7-0.7,3.5-0.8,5.4-0.8c1.2,0.1,1.5-0.4,1.1-1.5c-0.6-1.7-1.8-2.3-4-2
		c-0.7,0.1-1.3,0.3-1.9,0.6c-0.8,0.4-1.5,0.5-2-0.3c-0.5-0.9-0.8-1.8,0.1-2.7c3.6-3.4,11.3-1.3,12.4,3.5
		C163.1,58.1,162.9,59.8,162.9,61.5z M190.6,66.8c0,1.2-1.3,1.6-2.4,1.5c-1.1-0.1-2.2-0.5-2.2-2c0-2.5,0-5,0-7.5c0-2-1-3.4-2.6-3.5
		c-1.6-0.1-2.9,1.3-2.9,3.4c-0.1,2.5,0,5,0,7.5c0,1.5-0.7,2.1-2.3,2.1c-1.5,0-2.2-0.7-2.2-2.1c0-2.5,0-5,0-7.5
		c0-1.7-0.9-2.9-2.3-3.2c-1.8-0.3-3.2,0.8-3.3,2.8c-0.1,2.6,0,5.1,0,7.7c0,1.5-0.8,2.3-2.3,2.3c-1.5,0-2.2-0.7-2.2-2.4
		c0-4,0-7.9,0-11.9c0-1.3,0.2-2.3,1.7-2.5c1.3-0.2,2.2,0.4,2.7,1.9c4-3.1,6.5-2.8,8.7,1c0.4,0.1,0.4-0.2,0.6-0.4
		c1.4-2.1,3.5-3,6-2.5c2.5,0.5,4.1,2.1,4.7,4.5C191.2,59.6,190.7,63.2,190.6,66.8z M209,63.1c-1.2,5.5-6.1,7-10.5,3.3
		c0,2.6,0,5,0,7.4c0,1.6-0.7,2.2-2.3,2.2c-1.7,0-2.3-0.6-2.3-2.2c0-6.6,0-13.2,0-19.9c0-1.4,0.6-2.2,1.9-2.3c1.4-0.2,2.2,0.5,2.5,2
		c1.2-0.9,2.1-2,3.7-2.1c3.2-0.3,6,1.5,6.8,4.7C209.5,58.5,209.5,60.9,209,63.1z"/>
	<path fill="#D1D3D4" d="M59,46.8c-0.5,0-0.9,0-1.4,0c-2.8,0-2.8,0-2.8,2.7c0,0.6,0,1.1,0,1.7c0,2.8,0,2.8,2.8,2.8
		c0.5,0,0.9,0,1.4,0c2.3-0.1,3.4-1.3,3.4-3.6C62.3,48.1,61.2,46.9,59,46.8z"/>
	<path fill="#D1D3D4" d="M38.1,46.8c-2.4,0-3.6,1.2-3.7,3.7c0,1.7,0,3.3,0,5c0,1.8,0,3.6,0,5.5c0.1,2.4,1.3,3.5,3.6,3.5
		c2.4,0,3.5-1.1,3.6-3.6c0-3.5,0-7,0-10.5C41.6,47.9,40.4,46.8,38.1,46.8z"/>
	<path fill="#D1D3D4" d="M78.1,48.6c-0.6,2.3-1.2,4.2-1.7,6.1c-0.4,1.4-1.7,3.3-0.8,4.2c0.7,0.8,2.9,0.2,4.4,0.3
		c1.1,0.1,1.1-0.4,0.9-1.2C79.9,54.9,79.1,52,78.1,48.6z"/>
	<path fill="#D1D3D4" d="M115.4,48.6c-0.6,2.2-1.2,4.1-1.7,6c-0.4,1.4-1.7,3.3-0.9,4.2c0.9,0.9,3,0.2,4.5,0.3c0.1,0,0.1,0,0.2,0
		c0.6,0,0.9-0.1,0.7-0.8C117.3,55.2,116.4,52,115.4,48.6z"/>
	<path fill="#D1D3D4" d="M200.8,55.6c-1.3,0.3-2.2,1.5-2.2,3c0,0.5,0,0.9,0,1.4c0,0.5,0,0.9,0,1.4c0,1.5,1.1,2.9,2.5,3.2
		c1.2,0.3,2.7-0.5,3.3-1.9c0.7-1.8,0.7-3.7,0-5.5C203.7,55.8,202.3,55.3,200.8,55.6z"/>
	<path fill="#D1D3D4" d="M155.5,61.4c-1.1,0.2-2,0.7-2,2.2c0,0.6,0.2,1.1,0.9,1.5c0.9,0.4,1.6,0.2,2.3-0.3c1.1-0.7,2.1-1.9,1.6-3.1
		C157.9,60.7,156.4,61.2,155.5,61.4z"/>
</g>
</svg>
